<mxfile host="app.diagrams.net" modified="2024-04-10T16:19:04.872Z" agent="Mozilla/5.0 (Windows NT 10.0; Win64; x64) AppleWebKit/537.36 (KHTML, like Gecko) Chrome/123.0.0.0 Safari/537.36" version="24.1.0" etag="_RlGAHKn2ymeKk-s5EnK" type="github">
  <diagram name="PÃ¡gina-1" id="Z4b6QG28D4ePX7Gtifp5">
    <mxGraphModel>
      <root>
        <mxCell id="0" />
        <mxCell id="1" parent="0" />
      </root>
    </mxGraphModel>
  </diagram>
</mxfile>
